<?xml version="1.0" encoding="UTF-8"?>
<svg version="1.1" xmlns="http://www.w3.org/2000/svg" width="857" height="552">
<path d="M0 0 C282.81 0 565.62 0 857 0 C857 182.16 857 364.32 857 552 C574.19 552 291.38 552 0 552 C0 369.84 0 187.68 0 0 Z " fill="#FEFEFE" transform="translate(0,0)"/>
<path d="M0 0 C282.81 0 565.62 0 857 0 C857 182.16 857 364.32 857 552 C574.19 552 291.38 552 0 552 C0 369.84 0 187.68 0 0 Z M74 33 C74 185.13 74 337.26 74 494 C329.42 494 584.84 494 848 494 C848 341.87 848 189.74 848 33 C592.58 33 337.16 33 74 33 Z " fill="#F7F7F7" transform="translate(0,0)"/>
<path d="M0 0 C0.79015849 0.00223072 1.58031698 0.00446144 2.39441967 0.00675976 C3.64420998 0.00441978 3.64420998 0.00441978 4.91924858 0.00203252 C7.73301134 -0.00198104 10.54672089 0.00121353 13.36048412 0.00434887 C15.36883609 0.00299499 17.37718781 0.00121513 19.38553905 -0.00096118 C24.85645304 -0.00553706 30.32734826 -0.00374533 35.7982626 -0.0005821 C41.51000299 0.00194071 47.22174172 -0.00039581 52.93348217 -0.00196826 C62.5273165 -0.00379019 72.12114315 -0.00138304 81.71497631 0.00337231 C92.82408769 0.00881497 103.93318071 0.00705233 115.04229164 0.00154591 C124.56157082 -0.00298456 134.08084445 -0.0036361 143.60012436 -0.00101542 C149.29379674 0.00054772 154.98746048 0.00074011 160.68113232 -0.00255191 C166.03261586 -0.00542967 171.38407564 -0.0034567 176.7355566 0.00234234 C178.70568203 0.00367046 180.67580945 0.00327496 182.6459341 0.00107968 C185.32335392 -0.00162983 188.00069627 0.00174683 190.67811108 0.00675976 C191.46826957 0.00452904 192.25842806 0.00229832 193.07253075 0 C198.42211553 0.01959357 198.42211553 0.01959357 199.53626537 1.13374341 C199.6357299 2.90233533 199.66706755 4.67485791 199.66907787 6.44624341 C199.67036694 7.52132153 199.671656 8.59639966 199.67298412 9.70405591 C199.66911694 10.83585278 199.66524975 11.96764966 199.66126537 13.13374341 C199.66513256 14.26554028 199.66899975 15.39733716 199.67298412 16.56343091 C199.67105053 18.17604809 199.67105053 18.17604809 199.66907787 19.82124341 C199.66794994 20.81511059 199.66682201 21.80897778 199.6656599 22.83296216 C199.53626537 25.13374341 199.53626537 25.13374341 198.53626537 26.13374341 C195.90831953 26.23376878 193.30658755 26.26814758 190.67811108 26.26072705 C189.42832077 26.26306703 189.42832077 26.26306703 188.15328217 26.26545429 C185.33951941 26.26946786 182.52580986 26.26627328 179.71204662 26.26313794 C177.70369466 26.26449182 175.69534294 26.26627168 173.68699169 26.268448 C168.21607771 26.27302387 162.74518248 26.27123214 157.27426815 26.26806891 C151.56252776 26.2655461 145.85078903 26.26788262 140.13904858 26.26945508 C130.54521425 26.271277 120.9513876 26.26886985 111.35755444 26.2641145 C100.24844306 26.25867184 89.13935004 26.26043448 78.03023911 26.2659409 C68.51095993 26.27047137 58.99168629 26.27112291 49.47240639 26.26850224 C43.77873401 26.26693909 38.08507026 26.2667467 32.39139843 26.27003872 C27.03991488 26.27291648 21.68845511 26.27094351 16.33697414 26.26514447 C14.36684871 26.26381635 12.3967213 26.26421185 10.42659664 26.26640713 C7.74917682 26.26911664 5.07183447 26.26573998 2.39441967 26.26072705 C1.60426118 26.26295777 0.81410269 26.26518849 0 26.26748681 C-5.34958479 26.24789324 -5.34958479 26.24789324 -6.46373463 25.13374341 C-6.56319916 23.36515148 -6.5945368 21.5926289 -6.59654713 19.82124341 C-6.59783619 18.74616528 -6.59912525 17.67108716 -6.60045338 16.56343091 C-6.5946526 14.86573559 -6.5946526 14.86573559 -6.58873463 13.13374341 C-6.59260181 12.00194653 -6.596469 10.87014966 -6.60045338 9.70405591 C-6.59916431 8.62897778 -6.59787525 7.55389966 -6.59654713 6.44624341 C-6.5954192 5.45237622 -6.59429127 4.45850903 -6.59312916 3.43452466 C-6.3438655 -0.99766533 -3.84360688 0.01407772 0 0 Z " fill="#F4F4F5" transform="translate(642.46373462677,38.8662565946579)"/>
<path d="M0 0 C9.44765065 0.83255159 16.83338535 3.36944194 25.49609375 7.08203125 C26.82411152 7.55554578 28.1580369 8.01267655 29.49609375 8.45703125 C30.2540625 8.71226562 31.01203125 8.9675 31.79296875 9.23046875 C33.8291338 9.87191959 35.88548369 10.44981094 37.94921875 10.99609375 C48.06682098 13.88981126 55.20410252 18.44573014 62.49609375 26.08203125 C62.49609375 26.74203125 62.49609375 27.40203125 62.49609375 28.08203125 C63.05941406 28.18773437 63.62273437 28.2934375 64.203125 28.40234375 C66.89060133 29.19897217 68.83222445 30.43488881 71.18359375 31.95703125 C74.52148417 34.02967412 77.53592101 35.55310586 81.30859375 36.64453125 C85.48169756 37.89132852 87.59490154 39.77789568 90.49609375 43.08203125 C96.49138922 48.42918667 103.5794624 51.21879337 111.00390625 54.0546875 C116.21691923 56.20362545 120.88368269 58.87678459 125.55859375 62.01953125 C126.56019531 62.68855469 127.56179688 63.35757813 128.59375 64.046875 C131.49609375 66.08203125 131.49609375 66.08203125 133.98046875 68.1328125 C136.75058365 70.2792214 139.5535078 71.76126948 142.68359375 73.33203125 C147.00525545 75.60199497 150.76800113 77.93359297 154.49609375 81.08203125 C159.12185742 84.97820293 164.03751649 87.6609936 169.39453125 90.43359375 C173.64753978 92.69400886 177.55941534 95.31723394 181.49609375 98.08203125 C182.35332031 98.67242187 183.21054687 99.2628125 184.09375 99.87109375 C188.34773621 102.8156792 192.46641312 105.83589963 196.49609375 109.08203125 C199.04620486 110.83877446 201.60215527 112.55433188 204.26953125 114.12890625 C209.51601913 117.25538474 214.11621334 120.94640957 218.796875 124.86328125 C221.8169387 127.34576487 224.93629099 129.64216999 228.1328125 131.890625 C228.80763672 132.48037109 228.80763672 132.48037109 229.49609375 133.08203125 C229.49609375 133.74203125 229.49609375 134.40203125 229.49609375 135.08203125 C230.25921875 135.37078125 231.02234375 135.65953125 231.80859375 135.95703125 C234.49609375 137.08203125 234.49609375 137.08203125 237.49609375 139.08203125 C237.49609375 139.74203125 237.49609375 140.40203125 237.49609375 141.08203125 C239.14609375 141.74203125 240.79609375 142.40203125 242.49609375 143.08203125 C242.49609375 143.74203125 242.49609375 144.40203125 242.49609375 145.08203125 C243.44484375 145.32953125 244.39359375 145.57703125 245.37109375 145.83203125 C248.97407828 147.27322506 248.95406272 147.79236505 250.49609375 151.08203125 C252.13643568 151.81107211 253.80911293 152.46858368 255.49609375 153.08203125 C258.87626598 155.17773803 261.69984525 157.28578275 264.49609375 160.08203125 C266.59599027 161.25777836 266.59599027 161.25777836 268.49609375 162.08203125 C268.49609375 162.74203125 268.49609375 163.40203125 268.49609375 164.08203125 C269.19734375 164.35015625 269.89859375 164.61828125 270.62109375 164.89453125 C273.70209758 166.16711979 276.62235899 167.38391526 279.49609375 169.08203125 C279.85771404 170.4079723 280.19337414 171.74141582 280.49609375 173.08203125 C282.88678109 174.1883952 282.88678109 174.1883952 285.49609375 175.08203125 C287.30859375 176.58203125 287.30859375 176.58203125 288.49609375 178.08203125 C288.49609375 178.74203125 288.49609375 179.40203125 288.49609375 180.08203125 C289.21023438 180.3346875 289.924375 180.58734375 290.66015625 180.84765625 C299.43123178 184.66536956 307.4605873 191.95044131 314.12109375 198.76953125 C316.41400947 201.17913793 316.41400947 201.17913793 319.30859375 202.76953125 C320.03046875 203.20265625 320.75234375 203.63578125 321.49609375 204.08203125 C321.49609375 204.74203125 321.49609375 205.40203125 321.49609375 206.08203125 C322.27984375 206.14390625 323.06359375 206.20578125 323.87109375 206.26953125 C324.73734375 206.53765625 325.60359375 206.80578125 326.49609375 207.08203125 C327.16276042 208.74869792 327.82942708 210.41536458 328.49609375 212.08203125 C330.9801036 212.74550756 330.9801036 212.74550756 333.49609375 213.08203125 C334.15609375 214.07203125 334.81609375 215.06203125 335.49609375 216.08203125 C336.50671875 216.53578125 337.51734375 216.98953125 338.55859375 217.45703125 C341.49609375 219.08203125 341.49609375 219.08203125 342.37109375 221.76953125 C342.43296875 222.91421875 342.43296875 222.91421875 342.49609375 224.08203125 C343.40359375 223.99953125 344.31109375 223.91703125 345.24609375 223.83203125 C348.49609375 224.08203125 348.49609375 224.08203125 350.87109375 225.89453125 C352.49609375 228.08203125 352.49609375 228.08203125 352.49609375 231.08203125 C353.12257813 231.19160156 353.7490625 231.30117188 354.39453125 231.4140625 C355.21179688 231.57261719 356.0290625 231.73117187 356.87109375 231.89453125 C357.68320312 232.04535156 358.4953125 232.19617188 359.33203125 232.3515625 C361.49609375 233.08203125 361.49609375 233.08203125 363.49609375 236.08203125 C363.12109375 238.76953125 363.12109375 238.76953125 362.49609375 241.08203125 C363.61757813 241.12070312 363.61757813 241.12070312 364.76171875 241.16015625 C372.77240954 241.62150493 372.77240954 241.62150493 376.24609375 243.83203125 C377.49609375 246.08203125 377.49609375 246.08203125 377.43359375 248.70703125 C376.49609375 251.08203125 376.49609375 251.08203125 373.49609375 253.08203125 C370.63705211 253.33014183 367.91724997 253.45223082 365.05859375 253.45703125 C364.29482422 253.48152344 363.53105469 253.50601563 362.74414062 253.53125 C359.03582593 253.55061457 357.05537012 253.45039674 353.8984375 251.37109375 C352.49609375 249.08203125 352.49609375 249.08203125 352.74609375 246.33203125 C352.99359375 245.58953125 353.24109375 244.84703125 353.49609375 244.08203125 C352.79742188 243.97246094 352.09875 243.86289062 351.37890625 243.75 C350.46882813 243.59144531 349.55875 243.43289063 348.62109375 243.26953125 C347.26371094 243.04330078 347.26371094 243.04330078 345.87890625 242.8125 C343.49609375 242.08203125 343.49609375 242.08203125 341.49609375 239.08203125 C341.49609375 238.09203125 341.49609375 237.10203125 341.49609375 236.08203125 C340.21734375 235.81390625 338.93859375 235.54578125 337.62109375 235.26953125 C333.9993352 234.51013026 333.69557507 234.38125322 331.49609375 231.08203125 C331.49609375 230.09203125 331.49609375 229.10203125 331.49609375 228.08203125 C330.32046875 227.92734375 330.32046875 227.92734375 329.12109375 227.76953125 C326.49609375 227.08203125 326.49609375 227.08203125 324.49609375 224.08203125 C323.48546875 223.60765625 322.47484375 223.13328125 321.43359375 222.64453125 C320.46421875 222.12890625 319.49484375 221.61328125 318.49609375 221.08203125 C318.13447346 219.7560902 317.79881336 218.42264668 317.49609375 217.08203125 C315.00574989 215.78542691 315.00574989 215.78542691 312.49609375 215.08203125 C312.49609375 214.42203125 312.49609375 213.76203125 312.49609375 213.08203125 C310.84609375 212.42203125 309.19609375 211.76203125 307.49609375 211.08203125 C307.49609375 210.42203125 307.49609375 209.76203125 307.49609375 209.08203125 C306.77421875 208.87578125 306.05234375 208.66953125 305.30859375 208.45703125 C302.30194455 206.98711386 301.14606067 205.41448772 299.16015625 202.80078125 C296.20685824 199.75042649 292.47269768 197.81708835 288.82421875 195.6953125 C286.49609375 194.08203125 286.49609375 194.08203125 285.49609375 191.08203125 C284.17013916 190.40080687 282.83484659 189.73774693 281.49609375 189.08203125 C279.53858351 187.46353116 277.62461105 185.79158138 275.74609375 184.08203125 C275.23949219 183.63085938 274.73289062 183.1796875 274.2109375 182.71484375 C272.93063558 181.54842313 271.70817646 180.31919154 270.49609375 179.08203125 C270.49609375 178.42203125 270.49609375 177.76203125 270.49609375 177.08203125 C269.41328125 176.92734375 269.41328125 176.92734375 268.30859375 176.76953125 C265.21862689 176.01420602 263.10050689 174.89065149 260.49609375 173.08203125 C260.16609375 172.42203125 259.83609375 171.76203125 259.49609375 171.08203125 C258.10390625 170.40140625 258.10390625 170.40140625 256.68359375 169.70703125 C253.57991917 168.12476578 251.84654149 166.59457883 249.49609375 164.08203125 C248.50609375 163.42203125 247.51609375 162.76203125 246.49609375 162.08203125 C246.49609375 161.42203125 246.49609375 160.76203125 246.49609375 160.08203125 C244.84609375 159.42203125 243.19609375 158.76203125 241.49609375 158.08203125 C241.49609375 157.42203125 241.49609375 156.76203125 241.49609375 156.08203125 C240.43068359 155.72625 240.43068359 155.72625 239.34375 155.36328125 C236.02062905 153.86810474 233.69770269 151.95016909 230.93359375 149.58203125 C227.86548996 146.96073869 225.1307995 144.81246725 221.49609375 143.08203125 C219.82942708 141.41536458 218.16276042 139.74869792 216.49609375 138.08203125 C214.26129638 136.27350078 211.98630796 134.52697916 209.69921875 132.78515625 C207.84497288 131.35173214 206.07250695 129.87313436 204.30859375 128.33203125 C201.62670263 126.02167185 201.62670263 126.02167185 198.6875 124.6953125 C195.42020682 123.0436698 192.58301697 121.16672491 189.62109375 119.01953125 C188.65429688 118.32730469 187.6875 117.63507813 186.69140625 116.921875 C185.60472656 116.01115234 185.60472656 116.01115234 184.49609375 115.08203125 C184.49609375 114.42203125 184.49609375 113.76203125 184.49609375 113.08203125 C183.75746094 112.80875 183.01882813 112.53546875 182.2578125 112.25390625 C179.66550611 111.15391768 177.60980593 109.93813056 175.30859375 108.33203125 C172.09422679 106.13581369 168.84768315 104.06275282 165.49609375 102.08203125 C159.27230204 98.38243989 153.26002976 94.48698912 147.55859375 90.01953125 C144.68361241 87.81766062 141.83206334 86.19033633 138.55859375 84.64453125 C135.11194522 82.99704371 132.21842523 81.23085164 129.24609375 78.83203125 C120.29621061 71.61540012 111.36956351 66.10859764 100.53125 62.25 C94.03898842 59.75169084 88.56396539 56.19109098 83.49609375 51.45703125 C79.94432765 48.19112157 76.52890879 46.7197509 72.01953125 45.1171875 C68.53341694 43.68712513 65.64243485 41.65142649 62.6015625 39.44921875 C60.49186261 37.97377267 60.49186261 37.97377267 57.8515625 37.078125 C54.47115202 35.64859818 53.5113591 33.10492928 51.49609375 30.08203125 C44.01504676 23.22931366 34.32060403 20.59215447 24.73046875 18.109375 C21.59816263 17.11445168 19.25497512 15.83422957 16.49609375 14.08203125 C13.16963011 12.99583904 9.85450534 12.16657962 6.44921875 11.36328125 C5.3715625 11.10546875 4.29390625 10.84765625 3.18359375 10.58203125 C2.15621094 10.34484375 1.12882812 10.10765625 0.0703125 9.86328125 C-2.50390625 9.08203125 -2.50390625 9.08203125 -4.50390625 7.08203125 C-4.75390625 4.58203125 -4.75390625 4.58203125 -4.50390625 2.08203125 C-2.50390625 0.08203125 -2.50390625 0.08203125 0 0 Z " fill="#0303FF" transform="translate(340.50390625,165.91796875)"/>
<path d="M0 0 C1.81219276 -0.01913956 1.81219276 -0.01913956 3.66099548 -0.03866577 C5.62039818 -0.04200424 5.62039818 -0.04200424 7.61938477 -0.04541016 C8.97315106 -0.0518376 10.32691595 -0.05856592 11.68067932 -0.06558228 C14.51778382 -0.07755507 17.35476655 -0.08126307 20.19189453 -0.08007812 C23.82490686 -0.07987483 27.45713778 -0.10718595 31.08996487 -0.14162254 C33.88584469 -0.16387438 36.68153588 -0.16791623 39.47749519 -0.16685867 C41.46726899 -0.17036241 43.45698391 -0.19203538 45.44664001 -0.21395874 C46.65792068 -0.20780548 47.86920135 -0.20165222 49.1171875 -0.1953125 C50.18291489 -0.19816254 51.24864227 -0.20101257 52.34666443 -0.20394897 C55.80980072 0.41278462 57.01810467 1.51901083 59.12329102 4.29052734 C59.06079102 6.91552734 59.06079102 6.91552734 58.12329102 9.29052734 C54.66659399 11.59499203 53.32365474 11.55186788 49.24658203 11.58105469 C47.43438927 11.60019424 47.43438927 11.60019424 45.58558655 11.61972046 C43.62618385 11.62305893 43.62618385 11.62305893 41.62719727 11.62646484 C40.27343097 11.63289229 38.91966608 11.63962061 37.56590271 11.64663696 C34.72879821 11.65860976 31.89181548 11.66231776 29.0546875 11.66113281 C25.42167518 11.66092952 21.78944425 11.68824064 18.15661716 11.72267723 C15.36073734 11.74492906 12.56504615 11.74897092 9.76908684 11.74791336 C7.77931304 11.7514171 5.78959812 11.77309007 3.79994202 11.79501343 C1.98302101 11.78578354 1.98302101 11.78578354 0.12939453 11.77636719 C-0.93633286 11.77921722 -2.00206024 11.78206726 -3.1000824 11.78500366 C-6.56321869 11.16827007 -7.77152264 10.06204386 -9.87670898 7.29052734 C-9.81420898 4.66552734 -9.81420898 4.66552734 -8.87670898 2.29052734 C-5.42001196 -0.01393734 -4.0770727 0.0291868 0 0 Z " fill="#0000FF" transform="translate(759.876708984375,467.70947265625)"/>
<path d="M0 0 C2.5 0.25 2.5 0.25 4.5 2.25 C4.5 3.57 4.5 4.89 4.5 6.25 C5.28375 6.20875 6.0675 6.1675 6.875 6.125 C9.5 6.25 9.5 6.25 11.5 8.25 C13.86730201 8.63710381 13.86730201 8.63710381 16.5 8.75 C21.27777778 9.02777778 21.27777778 9.02777778 23.5 11.25 C23.625 13.875 23.625 13.875 23.5 16.25 C24.41495239 16.37060791 24.41495239 16.37060791 25.34838867 16.49365234 C28.12903458 16.86405287 30.90822868 17.24442829 33.6875 17.625 C34.64720703 17.75132812 35.60691406 17.87765625 36.59570312 18.0078125 C37.52705078 18.13671875 38.45839844 18.265625 39.41796875 18.3984375 C40.27156982 18.51364746 41.1251709 18.62885742 42.00463867 18.74755859 C44.99038616 19.34873933 48.28781408 20.03781408 50.5 22.25 C50.6875 24.6875 50.6875 24.6875 50.5 27.25 C48.5 29.25 48.5 29.25 45.953125 29.33203125 C23.71038615 27.46038615 23.71038615 27.46038615 19.5 23.25 C19.375 20.625 19.375 20.625 19.5 18.25 C18.87351562 18.27320313 18.24703125 18.29640625 17.6015625 18.3203125 C16.37566406 18.34738281 16.37566406 18.34738281 15.125 18.375 C13.90683594 18.40980469 13.90683594 18.40980469 12.6640625 18.4453125 C10.5 18.25 10.5 18.25 8.5 16.25 C7.654375 15.981875 6.80875 15.71375 5.9375 15.4375 C5.133125 15.045625 4.32875 14.65375 3.5 14.25 C2.6875 11.625 2.6875 11.625 2.5 9.25 C1.71625 9.29125 0.9325 9.3325 0.125 9.375 C-2.5 9.25 -2.5 9.25 -4.5 7.25 C-4.75 4.75 -4.75 4.75 -4.5 2.25 C-2.5 0.25 -2.5 0.25 0 0 Z " fill="#0202FF" transform="translate(290.5,133.75)"/>
<path d="M0 0 C2.03072002 -0.00437289 4.05926415 -0.0406999 6.08959961 -0.07861328 C7.37157227 -0.08248047 8.65354492 -0.08634766 9.97436523 -0.09033203 C11.14926514 -0.0985498 12.32416504 -0.10676758 13.53466797 -0.11523438 C17.20798065 0.46634668 18.41201768 1.41263266 20.60327148 4.37060547 C20.54077148 6.99560547 20.54077148 6.99560547 19.60327148 9.37060547 C14.86590442 12.52885018 9.78148607 11.74255868 4.20654297 11.74121094 C2.17582295 11.74558382 0.14727882 11.78191084 -1.88305664 11.81982422 C-3.80601562 11.825625 -3.80601562 11.825625 -5.76782227 11.83154297 C-7.53017212 11.84386963 -7.53017212 11.84386963 -9.328125 11.85644531 C-13.00143768 11.27486426 -14.20547471 10.32857827 -16.39672852 7.37060547 C-16.33422852 4.74560547 -16.33422852 4.74560547 -15.39672852 2.37060547 C-10.65936145 -0.78763924 -5.5749431 -0.00134774 0 0 Z " fill="#0000FF" transform="translate(740.396728515625,437.62939453125)"/>
<path d="M0 0 C1.3602832 -0.03673828 1.3602832 -0.03673828 2.74804688 -0.07421875 C9.38493082 -0.10352067 9.38493082 -0.10352067 12.6953125 2.234375 C14.0625 4.375 14.0625 4.375 14 7 C13.0625 9.375 13.0625 9.375 10.0625 11.375 C6.76522481 11.82835153 3.4501909 11.74529343 0.125 11.75 C-1.2352832 11.78673828 -1.2352832 11.78673828 -2.62304688 11.82421875 C-9.25993082 11.85352067 -9.25993082 11.85352067 -12.5703125 9.515625 C-13.9375 7.375 -13.9375 7.375 -13.875 4.75 C-11.51237906 -1.23530638 -5.39318111 0.00763366 0 0 Z " fill="#0000FF" transform="translate(720.9375,419.625)"/>
<path d="M0 0 C2.5625 0.25 2.5625 0.25 5.5625 2.25 C5.8925 1.92 6.2225 1.59 6.5625 1.25 C10.28474599 0.95613847 11.34036243 1.10190829 14.5625 3.25 C15.408125 3.25 16.25375 3.25 17.125 3.25 C17.929375 3.25 18.73375 3.25 19.5625 3.25 C21.5625 5.25 21.5625 5.25 21.8125 7.75 C21.5625 10.25 21.5625 10.25 19.5625 12.25 C15.82953674 12.63286803 14.78623677 12.39915785 11.5625 10.25 C10.7375 10.25 9.9125 10.25 9.0625 10.25 C6.5625 10.25 6.5625 10.25 3.5625 8.25 C3.2325 8.58 2.9025 8.91 2.5625 9.25 C0.125 9.4375 0.125 9.4375 -2.4375 9.25 C-4.4375 7.25 -4.4375 7.25 -4.6875 4.75 C-4.3425508 1.30050805 -3.45990757 0.35486231 0 0 Z " fill="#0303FF" transform="translate(266.4375,119.75)"/>
<path d="M0 0 C3.63 0 7.26 0 11 0 C11 0.66 11 1.32 11 2 C10.01 2 9.02 2 8 2 C7.7834375 2.8971875 7.7834375 2.8971875 7.5625 3.8125 C7.1127561 5.56150404 6.57107659 7.28677023 6 9 C6.66 9 7.32 9 8 9 C8.1875 11.375 8.1875 11.375 8 14 C5 16 5 16 2 16 C2 16.99 2 17.98 2 19 C3.98 19 5.96 19 8 19 C8 19.66 8 20.32 8 21 C6.35 21 4.7 21 3 21 C3 22.65 3 24.3 3 26 C4.65 26 6.3 26 8 26 C8 26.33 8 26.66 8 27 C4.7 27 1.4 27 -2 27 C-2 25.02 -2 23.04 -2 21 C-1.34 21 -0.68 21 0 21 C-0.01160156 20.25234375 -0.02320313 19.5046875 -0.03515625 18.734375 C-0.04417969 17.74953125 -0.05320312 16.7646875 -0.0625 15.75 C-0.07410156 14.77546875 -0.08570313 13.8009375 -0.09765625 12.796875 C-0.01180181 10.33800393 0.3986897 8.36190351 1 6 C0.67 5.67 0.34 5.34 0 5 C0 3.35 0 1.7 0 0 Z " fill="#565656" transform="translate(12,230)"/>
<path d="M0 0 C6.34507042 -0.35915493 6.34507042 -0.35915493 8.9375 1.0625 C10.6140629 4.11976176 10.36528977 6.5906288 10 10 C8.9375 11.9375 8.9375 11.9375 7 13 C3.3125 13.1875 3.3125 13.1875 0 13 C0 8.71 0 4.42 0 0 Z " fill="#363636" transform="translate(423,11)"/>
<path d="M0 0 C0.33 0.66 0.66 1.32 1 2 C3.47608101 2.74524194 3.47608101 2.74524194 6 3 C6.33 2.67 6.66 2.34 7 2 C8.66617115 1.95936168 10.33388095 1.957279 12 2 C12 2.66 12 3.32 12 4 C10.68 4 9.36 4 8 4 C8 4.66 8 5.32 8 6 C9.32 6.33 10.64 6.66 12 7 C12 8.32 12 9.64 12 11 C11 12 11 12 8.75 12.1328125 C7.8425 12.13023438 6.935 12.12765625 6 12.125 C4.63875 12.12886719 4.63875 12.12886719 3.25 12.1328125 C1 12 1 12 0 11 C-0.25910191 9.52887696 -0.45873776 8.04698431 -0.625 6.5625 C-0.72039063 5.75941406 -0.81578125 4.95632812 -0.9140625 4.12890625 C-1 2 -1 2 0 0 Z " fill="#DEDEDE" transform="translate(625,12)"/>
<path d="M0 0 C1.98 0 3.96 0 6 0 C6.144375 0.61875 6.28875 1.2375 6.4375 1.875 C6.93152225 4.03258322 6.93152225 4.03258322 8 6 C8.33 4.68 8.66 3.36 9 2 C13.875 2.875 13.875 2.875 15 4 C15.04080783 5.99958364 15.04254356 8.00045254 15 10 C12.03 10 9.06 10 6 10 C5.34 8.68 4.68 7.36 4 6 C3.34 5.67 2.68 5.34 2 5 C2 6.65 2 8.3 2 10 C1.34 10 0.68 10 0 10 C0 6.7 0 3.4 0 0 Z " fill="#616161" transform="translate(444,529)"/>
<path d="M0 0 C0.66 0 1.32 0 2 0 C2 0.99 2 1.98 2 3 C5.3 3 8.6 3 12 3 C12 3.66 12 4.32 12 5 C11.01 5.33 10.02 5.66 9 6 C8.67 8.31 8.34 10.62 8 13 C5.66705225 13.04241723 3.33297433 13.04092937 1 13 C-0.55383208 11.44616792 -0.38172542 9.77276704 -0.625 7.625 C-0.72039062 6.83351563 -0.81578125 6.04203125 -0.9140625 5.2265625 C-1 3 -1 3 0 0 Z " fill="#EBEBEB" transform="translate(449,11)"/>
<path d="M0 0 C0.94875 0.04125 1.8975 0.0825 2.875 0.125 C2.92889087 2.08303507 2.96774217 4.04148909 3 6 C3.02320313 7.09054688 3.04640625 8.18109375 3.0703125 9.3046875 C2.875 12.125 2.875 12.125 0.875 14.125 C-1.75 14.25 -1.75 14.25 -4.125 14.125 C-4.125 13.465 -4.125 12.805 -4.125 12.125 C-2.475 12.125 -0.825 12.125 0.875 12.125 C0.875 11.465 0.875 10.805 0.875 10.125 C0.070625 9.980625 -0.73375 9.83625 -1.5625 9.6875 C-4.125 9.125 -4.125 9.125 -5.125 8.125 C-5.3125 5.1875 -5.3125 5.1875 -5.125 2.125 C-3.125 0.125 -3.125 0.125 0 0 Z " fill="#323232" transform="translate(566.125,13.875)"/>
<path d="M0 0 C0.66 0 1.32 0 2 0 C2 0.99 2 1.98 2 3 C3.98 3 5.96 3 8 3 C8 6.3 8 9.6 8 13 C5.66705225 13.04241723 3.33297433 13.04092937 1 13 C-0.55383208 11.44616792 -0.38172542 9.77276704 -0.625 7.625 C-0.72039062 6.83351563 -0.81578125 6.04203125 -0.9140625 5.2265625 C-1 3 -1 3 0 0 Z " fill="#B0B0B0" transform="translate(488,11)"/>
<path d="M0 0 C0.66 0 1.32 0 2 0 C2 1.32 2 2.64 2 4 C2.804375 4.144375 3.60875 4.28875 4.4375 4.4375 C7 5 7 5 8 6 C8.1875 8.9375 8.1875 8.9375 8 12 C7.34 12.66 6.68 13.32 6 14 C4.02 14 2.04 14 0 14 C0 9.38 0 4.76 0 0 Z " fill="#303030" transform="translate(467,10)"/>
<path d="M0 0 C0.66 0 1.32 0 2 0 C2.33 0.66 2.66 1.32 3 2 C3.66 1.34 4.32 0.68 5 0 C7.625 -0.125 7.625 -0.125 10 0 C10 0.66 10 1.32 10 2 C8.68 2 7.36 2 6 2 C6 2.66 6 3.32 6 4 C7.32 4.33 8.64 4.66 10 5 C10 6.32 10 7.64 10 9 C9 10 9 10 6.93359375 10.09765625 C3.46679688 10.04882812 3.46679688 10.04882812 0 10 C0 6.7 0 3.4 0 0 Z " fill="#ADADAD" transform="translate(436,14)"/>
<path d="M0 0 C1.98 0 3.96 0 6 0 C6 4.62 6 9.24 6 14 C5.34 14 4.68 14 4 14 C4 12.68 4 11.36 4 10 C3.195625 9.855625 2.39125 9.71125 1.5625 9.5625 C-1 9 -1 9 -2 8 C-2.1875 5.0625 -2.1875 5.0625 -2 2 C-1.34 1.34 -0.68 0.68 0 0 Z " fill="#333333" transform="translate(311,14)"/>
<path d="M0 0 C1.98 0 3.96 0 6 0 C8 2 8 2 8.0625 5.375 C8.041875 6.57125 8.02125 7.7675 8 9 C8.42854995 11.31036915 8.42854995 11.31036915 9 13 C8.34 13 7.68 13 7 13 C6.67 11.35 6.34 9.7 6 8 C4.68 8 3.36 8 2 8 C2 9.65 2 11.3 2 13 C1.34 13 0.68 13 0 13 C0 8.71 0 4.42 0 0 Z " fill="#7C7C7C" transform="translate(376,11)"/>
<path d="M0 0 C3.63 0 7.26 0 11 0 C11 0.66 11 1.32 11 2 C10.01 2 9.02 2 8 2 C7.855625 3.2375 7.71125 4.475 7.5625 5.75 C7.21311498 8.56504499 6.79620634 11.2701497 6 14 C5.34 14 4.68 14 4 14 C4 12.02 4 10.04 4 8 C3.34 8 2.68 8 2 8 C0 5 0 5 0 0 Z " fill="#C5C5C5" transform="translate(12,230)"/>
<path d="M0 0 C0.33 0 0.66 0 1 0 C1 4.62 1 9.24 1 14 C-0.98 14 -2.96 14 -5 14 C-7.14915785 10.77626323 -7.38286803 9.73296326 -7 6 C-6.34 5.34 -5.68 4.68 -5 4 C-3.68 4 -2.36 4 -1 4 C-0.67 2.68 -0.34 1.36 0 0 Z " fill="#2A2A2A" transform="translate(595,10)"/>
<path d="M0 0 C1.2684375 0.12375 1.2684375 0.12375 2.5625 0.25 C4.5625 3.25 4.5625 3.25 4.25 6.375 C3.5625 9.25 3.5625 9.25 2.5625 10.25 C0.125 10.5 0.125 10.5 -2.4375 10.25 C-4.4375 7.25 -4.4375 7.25 -4.125 4.125 C-3.2175 0.33 -3.2175 0.33 0 0 Z " fill="#3E3E3E" transform="translate(528.4375,13.75)"/>
<path d="M0 0 C0.33 0.33 0.66 0.66 1 1 C0.28 7.72 0.28 7.72 -1 9 C-3.5 9.125 -3.5 9.125 -6 9 C-7 8 -7 8 -7.09765625 6.15234375 C-7.06510417 4.1015625 -7.03255208 2.05078125 -7 0 C-4.31633121 -1.3418344 -2.84719317 -0.73004953 0 0 Z " fill="#343434" transform="translate(506,15)"/>
<path d="M0 0 C2.5 0.25 2.5 0.25 4.5 2.25 C4.75 4.75 4.75 4.75 4.5 7.25 C2.5 9.25 2.5 9.25 0 9.5 C-2.5 9.25 -2.5 9.25 -4.5 7.25 C-4.75 4.75 -4.75 4.75 -4.5 2.25 C-2.5 0.25 -2.5 0.25 0 0 Z " fill="#0303FF" transform="translate(256.5,116.75)"/>
<path d="M0 0 C2.5 0.25 2.5 0.25 4.5 2.25 C4.75 4.75 4.75 4.75 4.5 7.25 C2.5 9.25 2.5 9.25 0 9.5 C-2.5 9.25 -2.5 9.25 -4.5 7.25 C-4.75 4.75 -4.75 4.75 -4.5 2.25 C-2.5 0.25 -2.5 0.25 0 0 Z " fill="#0303FF" transform="translate(244.5,114.75)"/>
<path d="M0 0 C2.5 0.25 2.5 0.25 4.5 2.25 C4.75 4.75 4.75 4.75 4.5 7.25 C2.5 9.25 2.5 9.25 0 9.5 C-2.5 9.25 -2.5 9.25 -4.5 7.25 C-4.75 4.75 -4.75 4.75 -4.5 2.25 C-2.5 0.25 -2.5 0.25 0 0 Z " fill="#0303FF" transform="translate(230.5,101.75)"/>
<path d="M0 0 C2.5 0.25 2.5 0.25 4.5 2.25 C4.75 4.75 4.75 4.75 4.5 7.25 C2.5 9.25 2.5 9.25 0 9.5 C-2.5 9.25 -2.5 9.25 -4.5 7.25 C-4.75 4.75 -4.75 4.75 -4.5 2.25 C-2.5 0.25 -2.5 0.25 0 0 Z " fill="#0303FF" transform="translate(213.5,94.75)"/>
<path d="M0 0 C2.5 0.25 2.5 0.25 4.5 2.25 C4.75 4.75 4.75 4.75 4.5 7.25 C2.5 9.25 2.5 9.25 0 9.5 C-2.5 9.25 -2.5 9.25 -4.5 7.25 C-4.75 4.75 -4.75 4.75 -4.5 2.25 C-2.5 0.25 -2.5 0.25 0 0 Z " fill="#0303FF" transform="translate(192.5,88.75)"/>
<path d="M0 0 C2.5 0.25 2.5 0.25 4.5 2.25 C4.75 4.75 4.75 4.75 4.5 7.25 C2.5 9.25 2.5 9.25 0 9.5 C-2.5 9.25 -2.5 9.25 -4.5 7.25 C-4.75 4.75 -4.75 4.75 -4.5 2.25 C-2.5 0.25 -2.5 0.25 0 0 Z " fill="#0303FF" transform="translate(161.5,80.75)"/>
<path d="M0 0 C1.98 0 3.96 0 6 0 C6 0.66 6 1.32 6 2 C6.99 1.34 7.98 0.68 9 0 C11.6875 0.375 11.6875 0.375 14 1 C14 1.99 14 2.98 14 4 C12.35 4 10.7 4 9 4 C9.33 4.66 9.66 5.32 10 6 C11.32 6 12.64 6 14 6 C14 6.66 14 7.32 14 8 C11.6875 8.25 11.6875 8.25 9 8 C7.1875 6 7.1875 6 6 4 C6 5.32 6 6.64 6 8 C4.02 8 2.04 8 0 8 C1 6 2 4 3 2 C2.01 1.34 1.02 0.68 0 0 Z " fill="#494949" transform="translate(735,48)"/>
<path d="M0 0 C2.5 0.25 2.5 0.25 4.5 2.25 C4.75 4.75 4.75 4.75 4.5 7.25 C2.5 9.25 2.5 9.25 0 9.5 C-2.5 9.25 -2.5 9.25 -4.5 7.25 C-4.75 4.75 -4.75 4.75 -4.5 2.25 C-2.5 0.25 -2.5 0.25 0 0 Z " fill="#0303FF" transform="translate(108.5,48.75)"/>
<path d="M0 0 C2.5 0.25 2.5 0.25 4.5 2.25 C4.75 4.75 4.75 4.75 4.5 7.25 C2.5 9.25 2.5 9.25 0 9.5 C-2.5 9.25 -2.5 9.25 -4.5 7.25 C-4.75 4.75 -4.75 4.75 -4.5 2.25 C-2.5 0.25 -2.5 0.25 0 0 Z " fill="#0303FF" transform="translate(655.5,46.75)"/>
<path d="M0 0 C2.31 0.33 4.62 0.66 7 1 C6.67 2.32 6.34 3.64 6 5 C6.33 5 6.66 5 7 5 C7.042721 6.66611905 7.04063832 8.33382885 7 10 C6 11 6 11 2.9375 11.0625 C1.968125 11.041875 0.99875 11.02125 0 11 C-0.88376862 6.91257012 -1.34972126 4.04916379 0 0 Z " fill="#A8A8A8" transform="translate(13,208)"/>
<path d="M0 0 C2.56695636 0.39491636 4.67123994 0.83561997 7 2 C7 1.34 7 0.68 7 0 C7.99 0.33 8.98 0.66 10 1 C9.67 3.31 9.34 5.62 9 8 C7.68 7.67 6.36 7.34 5 7 C5 7.33 5 7.66 5 8 C3.33388095 8.042721 1.66617115 8.04063832 0 8 C-1 7 -1 7 -1.125 4 C-1 1 -1 1 0 0 Z " fill="#A4A4A4" transform="translate(804,48)"/>
<path d="M0 0 C3.63 0 7.26 0 11 0 C11.04254356 1.99954746 11.04080783 4.00041636 11 6 C10 7 10 7 6.9375 7.0625 C5.968125 7.041875 4.99875 7.02125 4 7 C3.67 5.35 3.34 3.7 3 2 C2.01 2 1.02 2 0 2 C0 1.34 0 0.68 0 0 Z " fill="#434343" transform="translate(9,264)"/>
<path d="M0 0 C3.53571429 0.53571429 3.53571429 0.53571429 5 2 C5.1875 4.9375 5.1875 4.9375 5 8 C4.34 8.66 3.68 9.32 3 10 C1.68 10 0.36 10 -1 10 C-2.38125018 7.23749964 -2.19079306 5.05268901 -2 2 C-1.34 1.34 -0.68 0.68 0 0 Z " fill="#878787" transform="translate(808,509)"/>
<path d="M0 0 C3.53571429 0.53571429 3.53571429 0.53571429 5 2 C5.1875 4.9375 5.1875 4.9375 5 8 C4.34 8.66 3.68 9.32 3 10 C1.68 10 0.36 10 -1 10 C-2.38125018 7.23749964 -2.19079306 5.05268901 -2 2 C-1.34 1.34 -0.68 0.68 0 0 Z " fill="#878787" transform="translate(633,509)"/>
<path d="M0 0 C3.53571429 0.53571429 3.53571429 0.53571429 5 2 C5.1875 4.9375 5.1875 4.9375 5 8 C4.34 8.66 3.68 9.32 3 10 C1.68 10 0.36 10 -1 10 C-2.38125018 7.23749964 -2.19079306 5.05268901 -2 2 C-1.34 1.34 -0.68 0.68 0 0 Z " fill="#878787" transform="translate(458,509)"/>
<path d="M0 0 C3.53571429 0.53571429 3.53571429 0.53571429 5 2 C5.1875 4.9375 5.1875 4.9375 5 8 C4.34 8.66 3.68 9.32 3 10 C1.68 10 0.36 10 -1 10 C-2.38125018 7.23749964 -2.19079306 5.05268901 -2 2 C-1.34 1.34 -0.68 0.68 0 0 Z " fill="#878787" transform="translate(283,509)"/>
<path d="M0 0 C3.53571429 0.53571429 3.53571429 0.53571429 5 2 C5.1875 4.9375 5.1875 4.9375 5 8 C4.34 8.66 3.68 9.32 3 10 C1.68 10 0.36 10 -1 10 C-2.38125018 7.23749964 -2.19079306 5.05268901 -2 2 C-1.34 1.34 -0.68 0.68 0 0 Z " fill="#878787" transform="translate(107,509)"/>
<path d="M0 0 C3.53571429 0.53571429 3.53571429 0.53571429 5 2 C5.1875 4.9375 5.1875 4.9375 5 8 C4.34 8.66 3.68 9.32 3 10 C1.68 10 0.36 10 -1 10 C-2.38125018 7.23749964 -2.19079306 5.05268901 -2 2 C-1.34 1.34 -0.68 0.68 0 0 Z " fill="#878787" transform="translate(42,443)"/>
<path d="M0 0 C3.53571429 0.53571429 3.53571429 0.53571429 5 2 C5.1875 4.9375 5.1875 4.9375 5 8 C4.34 8.66 3.68 9.32 3 10 C1.68 10 0.36 10 -1 10 C-2.38125018 7.23749964 -2.19079306 5.05268901 -2 2 C-1.34 1.34 -0.68 0.68 0 0 Z " fill="#878787" transform="translate(42,343)"/>
<path d="M0 0 C3.53571429 0.53571429 3.53571429 0.53571429 5 2 C5.1875 4.9375 5.1875 4.9375 5 8 C4.34 8.66 3.68 9.32 3 10 C1.68 10 0.36 10 -1 10 C-2.38125018 7.23749964 -2.19079306 5.05268901 -2 2 C-1.34 1.34 -0.68 0.68 0 0 Z " fill="#878787" transform="translate(42,243)"/>
<path d="M0 0 C3.53571429 0.53571429 3.53571429 0.53571429 5 2 C5.1875 4.9375 5.1875 4.9375 5 8 C4.34 8.66 3.68 9.32 3 10 C1.68 10 0.36 10 -1 10 C-2.38125018 7.23749964 -2.19079306 5.05268901 -2 2 C-1.34 1.34 -0.68 0.68 0 0 Z " fill="#878787" transform="translate(42,143)"/>
<path d="M0 0 C0.66 0 1.32 0 2 0 C2 3.63 2 7.26 2 11 C0.02 11 -1.96 11 -4 11 C-4.33 8.69 -4.66 6.38 -5 4 C-3.35 3.67 -1.7 3.34 0 3 C0 2.01 0 1.02 0 0 Z " fill="#424242" transform="translate(756,45)"/>
<path d="M0 0 C3.53571429 0.53571429 3.53571429 0.53571429 5 2 C5.1875 4.9375 5.1875 4.9375 5 8 C4.34 8.66 3.68 9.32 3 10 C1.68 10 0.36 10 -1 10 C-2.38125018 7.23749964 -2.19079306 5.05268901 -2 2 C-1.34 1.34 -0.68 0.68 0 0 Z " fill="#878787" transform="translate(42,42)"/>
<path d="M0 0 C1.65 0 3.3 0 5 0 C5 3.63 5 7.26 5 11 C4.34 11 3.68 11 3 11 C3 10.01 3 9.02 3 8 C1.68 7.67 0.36 7.34 -1 7 C-1.625 4.625 -1.625 4.625 -2 2 C-1.34 1.34 -0.68 0.68 0 0 Z " fill="#A9A9A9" transform="translate(787,48)"/>
<path d="M0 0 C0.78375 0.04125 1.5675 0.0825 2.375 0.125 C2.705 1.775 3.035 3.425 3.375 5.125 C1.395 5.125 -0.585 5.125 -2.625 5.125 C-2.625 6.115 -2.625 7.105 -2.625 8.125 C-0.645 8.125 1.335 8.125 3.375 8.125 C3.375 8.785 3.375 9.445 3.375 10.125 C0.5 10.25 0.5 10.25 -2.625 10.125 C-4.625 8.125 -4.625 8.125 -4.875 5.125 C-4.55416156 1.2749387 -3.94115238 0.18767392 0 0 Z " fill="#2B2B2B" transform="translate(582.625,13.875)"/>
<path d="M0 0 C1.1446875 0.3403125 1.1446875 0.3403125 2.3125 0.6875 C2.6425 2.0075 2.9725 3.3275 3.3125 4.6875 C1.0025 4.6875 -1.3075 4.6875 -3.6875 4.6875 C-3.3575 5.3475 -3.0275 6.0075 -2.6875 6.6875 C0.34184491 7.34522428 0.34184491 7.34522428 3.3125 7.6875 C2.9825 8.3475 2.6525 9.0075 2.3125 9.6875 C0.0025 9.3575 -2.3075 9.0275 -4.6875 8.6875 C-6.01591008 3.25309513 -6.01591008 3.25309513 -4.5625 0.75 C-2.6875 -0.3125 -2.6875 -0.3125 0 0 Z " fill="#565656" transform="translate(608.6875,14.3125)"/>
<path d="M0 0 C2.625 0.375 2.625 0.375 5 1 C5.33 2.32 5.66 3.64 6 5 C4.02 5 2.04 5 0 5 C0 5.99 0 6.98 0 8 C1.98 8 3.96 8 6 8 C6 8.66 6 9.32 6 10 C3.125 10.125 3.125 10.125 0 10 C-2 8 -2 8 -2.25 5 C-2 2 -2 2 0 0 Z " fill="#505050" transform="translate(332,14)"/>
<path d="M0 0 C1.66611905 -0.042721 3.33382885 -0.04063832 5 0 C6 1 6 1 6.125 4.5 C6 8 6 8 5 9 C3.33382885 9.04063832 1.66611905 9.042721 0 9 C0 6.03 0 3.06 0 0 Z " fill="#FBFBFB" transform="translate(425,13)"/>
<path d="M0 0 C1.98 0 3.96 0 6 0 C6 0.66 6 1.32 6 2 C6.99 2.33 7.98 2.66 9 3 C8.67 5.31 8.34 7.62 8 10 C7.34 10 6.68 10 6 10 C5.67 8.35 5.34 6.7 5 5 C3.68 5 2.36 5 1 5 C1 6.65 1 8.3 1 10 C0.67 10 0.34 10 0 10 C0 6.7 0 3.4 0 0 Z " fill="#676767" transform="translate(765,46)"/>
<path d="M0 0 C0.66 0 1.32 0 2 0 C2.33 1.98 2.66 3.96 3 6 C4.32 5.34 5.64 4.68 7 4 C5.515 6.475 5.515 6.475 4 9 C5.32 10.65 6.64 12.3 8 14 C6.68 13.67 5.36 13.34 4 13 C4 12.34 4 11.68 4 11 C3.34 11 2.68 11 2 11 C2 11.99 2 12.98 2 14 C1.34 14 0.68 14 0 14 C0 9.38 0 4.76 0 0 Z " fill="#454545" transform="translate(408,10)"/>
<path d="M0 0 C2.625 0.375 2.625 0.375 5 1 C5.33 2.32 5.66 3.64 6 5 C3.69 5 1.38 5 -1 5 C-0.67 5.66 -0.34 6.32 0 7 C3.02934491 7.65772428 3.02934491 7.65772428 6 8 C5.67 8.66 5.34 9.32 5 10 C2.625 10.125 2.625 10.125 0 10 C-2 8 -2 8 -2.25 5 C-2 2 -2 2 0 0 Z " fill="#4D4D4D" transform="translate(301,14)"/>
<path d="M0 0 C0.66 0 1.32 0 2 0 C2 2.64 2 5.28 2 8 C2.99 7.67 3.98 7.34 5 7 C5.33 4.69 5.66 2.38 6 0 C6.66 0 7.32 0 8 0 C8 3.3 8 6.6 8 10 C5.66705225 10.04241723 3.33297433 10.04092937 1 10 C0 9 0 9 -0.09765625 6.93359375 C-0.08605469 6.10988281 -0.07445312 5.28617188 -0.0625 4.4375 C-0.05347656 3.61121094 -0.04445313 2.78492188 -0.03515625 1.93359375 C-0.02355469 1.29550781 -0.01195312 0.65742188 0 0 Z " fill="#464646" transform="translate(320,14)"/>
<path d="M0 0 C-0.33 1.65 -0.66 3.3 -1 5 C-3.375 5.625 -3.375 5.625 -6 6 C-6.66 5.34 -7.32 4.68 -8 4 C-8 2.68 -8 1.36 -8 0 C-5.13822943 -1.43088528 -3.06624227 -0.59991697 0 0 Z " fill="#808080" transform="translate(20,325)"/>
<path d="M0 0 C3.69230769 0.69230769 3.69230769 0.69230769 5 2 C5.04063832 3.66617115 5.042721 5.33388095 5 7 C2.625 7.625 2.625 7.625 0 8 C-0.66 7.34 -1.32 6.68 -2 6 C-1.44444444 1.44444444 -1.44444444 1.44444444 0 0 Z " fill="#808080" transform="translate(693,48)"/>
<path d="M0 0 C0.66 0 1.32 0 2 0 C2 2.64 2 5.28 2 8 C3.32 8 4.64 8 6 8 C6 5.36 6 2.72 6 0 C6.66 0 7.32 0 8 0 C8 3.3 8 6.6 8 10 C5.125 10.125 5.125 10.125 2 10 C0 8 0 8 -0.1953125 6.0546875 C-0.13020833 4.03645833 -0.06510417 2.01822917 0 0 Z " fill="#3B3B3B" transform="translate(477,14)"/>
<path d="M0 0 C4.5 2.25 4.5 2.25 6 6 C6.33 4.02 6.66 2.04 7 0 C7.33 0 7.66 0 8 0 C8 3.3 8 6.6 8 10 C5 9 5 9 3.8125 6.9375 C3.544375 6.298125 3.27625 5.65875 3 5 C2.67 6.65 2.34 8.3 2 10 C1.34 10 0.68 10 0 10 C0 6.7 0 3.4 0 0 Z " fill="#343434" transform="translate(681,46)"/>
<path d="M0 0 C2.875 -0.125 2.875 -0.125 6 0 C8 2 8 2 8.1953125 3.9453125 C8.13020833 5.96354167 8.06510417 7.98177083 8 10 C7.34 10 6.68 10 6 10 C6 7.36 6 4.72 6 2 C4.68 2 3.36 2 2 2 C2 4.64 2 7.28 2 10 C1.34 10 0.68 10 0 10 C0 6.7 0 3.4 0 0 Z " fill="#353535" transform="translate(551,14)"/>
<path d="M0 0 C2.875 -0.125 2.875 -0.125 6 0 C8 2 8 2 8.1953125 3.9453125 C8.13020833 5.96354167 8.06510417 7.98177083 8 10 C7.34 10 6.68 10 6 10 C6 7.36 6 4.72 6 2 C4.68 2 3.36 2 2 2 C2 4.64 2 7.28 2 10 C1.34 10 0.68 10 0 10 C0 6.7 0 3.4 0 0 Z " fill="#3D3D3D" transform="translate(614,14)"/>
<path d="M0 0 C2.875 -0.125 2.875 -0.125 6 0 C8 2 8 2 8.1953125 3.9453125 C8.13020833 5.96354167 8.06510417 7.98177083 8 10 C7.34 10 6.68 10 6 10 C6 7.36 6 4.72 6 2 C4.68 2 3.36 2 2 2 C2 4.64 2 7.28 2 10 C1.34 10 0.68 10 0 10 C0 6.7 0 3.4 0 0 Z " fill="#3D3D3D" transform="translate(509,14)"/>
<path d="M0 0 C2.875 -0.125 2.875 -0.125 6 0 C8 2 8 2 8.1953125 3.9453125 C8.13020833 5.96354167 8.06510417 7.98177083 8 10 C7.34 10 6.68 10 6 10 C6 7.36 6 4.72 6 2 C4.68 2 3.36 2 2 2 C2 4.64 2 7.28 2 10 C1.34 10 0.68 10 0 10 C0 6.7 0 3.4 0 0 Z " fill="#3D3D3D" transform="translate(397,14)"/>
<path d="M0 0 C3.3 0 6.6 0 10 0 C9 3 9 3 6.9375 4.1875 C6.298125 4.455625 5.65875 4.72375 5 5 C6.65 5.33 8.3 5.66 10 6 C10 6.66 10 7.32 10 8 C6.7 8 3.4 8 0 8 C2.25 3.5 2.25 3.5 6 2 C3.03 1.505 3.03 1.505 0 1 C0 0.67 0 0.34 0 0 Z " fill="#343434" transform="translate(10,333)"/>
<path d="M0 0 C0 0.33 0 0.66 0 1 C-1.65 1 -3.3 1 -5 1 C-5 2.65 -5 4.3 -5 6 C-3.35 6 -1.7 6 0 6 C0 6.33 0 6.66 0 7 C-3.3 7 -6.6 7 -10 7 C-10 5.02 -10 3.04 -10 1 C-6.78548731 -0.60725635 -3.56387464 -0.05748185 0 0 Z " fill="#7D7D7D" transform="translate(20,250)"/>
<path d="M0 0 C2.33944736 0.28730055 4.6739143 0.61936779 7 1 C7 1.66 7 2.32 7 3 C5.02 3 3.04 3 1 3 C1 3.99 1 4.98 1 6 C2.98 6 4.96 6 7 6 C7 6.66 7 7.32 7 8 C4.36 8 1.72 8 -1 8 C-1.04241723 5.66705225 -1.04092937 3.33297433 -1 1 C-0.67 0.67 -0.34 0.34 0 0 Z " fill="#585858" transform="translate(13,314)"/>
<path d="M0 0 C1.65 0 3.3 0 5 0 C5 0.66 5 1.32 5 2 C3.68 2 2.36 2 1 2 C1 2.66 1 3.32 1 4 C2.32 4.33 3.64 4.66 5 5 C5 6.32 5 7.64 5 9 C4 10 4 10 1.4375 10.0625 C0.633125 10.041875 -0.17125 10.02125 -1 10 C-1 9.34 -1 8.68 -1 8 C0.65 8 2.3 8 4 8 C4 7.34 4 6.68 4 6 C2.35 5.67 0.7 5.34 -1 5 C-0.67 3.35 -0.34 1.7 0 0 Z " fill="#414141" transform="translate(632,14)"/>
<path d="M0 0 C1.65 0 3.3 0 5 0 C5 0.66 5 1.32 5 2 C3.68 2 2.36 2 1 2 C1 2.66 1 3.32 1 4 C2.32 4.33 3.64 4.66 5 5 C5 6.32 5 7.64 5 9 C4 10 4 10 1.4375 10.0625 C0.633125 10.041875 -0.17125 10.02125 -1 10 C-1 9.34 -1 8.68 -1 8 C0.65 8 2.3 8 4 8 C4 7.34 4 6.68 4 6 C2.35 5.67 0.7 5.34 -1 5 C-0.67 3.35 -0.34 1.7 0 0 Z " fill="#414141" transform="translate(441,14)"/>
<path d="M0 0 C6.15234375 -0.09765625 6.15234375 -0.09765625 8 0 C9 1 9 1 9.0625 4.5625 C9.041875 5.696875 9.02125 6.83125 9 8 C8.34 8 7.68 8 7 8 C7 6.02 7 4.04 7 2 C6.01 2 5.02 2 4 2 C4 3.98 4 5.96 4 8 C3.34 8 2.68 8 2 8 C2 5.69 2 3.38 2 1 C1.34 0.67 0.68 0.34 0 0 Z " fill="#545454" transform="translate(708,48)"/>
<path d="M0 0 C0.99 0.495 0.99 0.495 2 1 C2.625 3.5625 2.625 3.5625 3 6 C3.66 6 4.32 6 5 6 C5.33 4.02 5.66 2.04 6 0 C6.66 0 7.32 0 8 0 C7.54636829 1.58468677 7.08688548 3.16769924 6.625 4.75 C6.36976563 5.63171875 6.11453125 6.5134375 5.8515625 7.421875 C5.0790066 9.76080572 4.16374324 11.83442562 3 14 C2.01 13.67 1.02 13.34 0 13 C0.66 12.67 1.32 12.34 2 12 C1.855625 11.13375 1.71125 10.2675 1.5625 9.375 C1.04166667 6.25 0.52083333 3.125 0 0 Z " fill="#2B2B2B" transform="translate(360,14)"/>
<path d="M0 0 C2.31 0 4.62 0 7 0 C8.43088528 2.86177057 7.59991697 4.93375773 7 8 C6.34 8 5.68 8 5 8 C5 5.69 5 3.38 5 1 C4.01 1.495 4.01 1.495 3 2 C2.34227572 5.02934491 2.34227572 5.02934491 2 8 C1.34 8 0.68 8 0 8 C0 5.36 0 2.72 0 0 Z " fill="#4F4F4F" transform="translate(700,48)"/>
<path d="M0 0 C1.99954746 -0.04254356 4.00041636 -0.04080783 6 0 C7 1 7 1 7.09765625 3.06640625 C7.08605469 3.89011719 7.07445312 4.71382812 7.0625 5.5625 C7.05347656 6.38878906 7.04445313 7.21507812 7.03515625 8.06640625 C7.01775391 9.02353516 7.01775391 9.02353516 7 10 C6.67 10 6.34 10 6 10 C6 7.36 6 4.72 6 2 C4.68 2 3.36 2 2 2 C2 4.64 2 7.28 2 10 C1.34 10 0.68 10 0 10 C0 6.7 0 3.4 0 0 Z " fill="#373737" transform="translate(341,14)"/>
<path d="M0 0 C0.99 0 1.98 0 3 0 C3 1.65 3 3.3 3 5 C3.66 4.67 4.32 4.34 5 4 C5 2.68 5 1.36 5 0 C5.66 0 6.32 0 7 0 C7.125 2.375 7.125 2.375 7 5 C6.34 5.66 5.68 6.32 5 7 C2.375 6.625 2.375 6.625 0 6 C-0.38218767 4.34385343 -0.71395102 2.67542976 -1 1 C-0.67 0.67 -0.34 0.34 0 0 Z " fill="#242424" transform="translate(13,273)"/>
<path d="M0 0 C1.99954746 -0.04254356 4.00041636 -0.04080783 6 0 C7 1 7 1 7.0625 4.5625 C7.041875 5.696875 7.02125 6.83125 7 8 C6.34 8 5.68 8 5 8 C5 5.69 5 3.38 5 1 C4.01 1.495 4.01 1.495 3 2 C2.34227572 5.02934491 2.34227572 5.02934491 2 8 C1.34 8 0.68 8 0 8 C0 5.36 0 2.72 0 0 Z " fill="#525252" transform="translate(461,531)"/>
<path d="M0 0 C1.66611905 -0.042721 3.33382885 -0.04063832 5 0 C6 1 6 1 6.09765625 3.06640625 C6.08605469 3.89011719 6.07445312 4.71382812 6.0625 5.5625 C6.05347656 6.38878906 6.04445313 7.21507812 6.03515625 8.06640625 C6.01775391 9.02353516 6.01775391 9.02353516 6 10 C5.67 10 5.34 10 5 10 C5 8.35 5 6.7 5 5 C3.68 5.33 2.36 5.66 1 6 C1 6.66 1 7.32 1 8 C1.66 8.66 2.32 9.32 3 10 C1.68 9.67 0.36 9.34 -1 9 C-0.67 7.35 -0.34 5.7 0 4 C1.32 3.67 2.64 3.34 4 3 C2.35 2.67 0.7 2.34 -1 2 C-0.67 1.34 -0.34 0.68 0 0 Z " fill="#252525" transform="translate(388,14)"/>
<path d="M0 0 C2.64 0 5.28 0 8 0 C8 1.98 8 3.96 8 6 C5.29120665 7.35439668 2.99066732 7.06501451 0 7 C0 6.34 0 5.68 0 5 C2.31 5 4.62 5 7 5 C6.67 4.34 6.34 3.68 6 3 C2.97065509 2.34227572 2.97065509 2.34227572 0 2 C0 1.34 0 0.68 0 0 Z " fill="#505050" transform="translate(12,221)"/>
<path d="M0 0 C1.65 0.33 3.3 0.66 5 1 C5 3.31 5 5.62 5 8 C3.35 8 1.7 8 0 8 C-0.33 6.68 -0.66 5.36 -1 4 C0.32 3.34 1.64 2.68 3 2 C2.01 1.34 1.02 0.68 0 0 Z " fill="#4F4F4F" transform="translate(720,48)"/>
<path d="M0 0 C0.66 0 1.32 0 2 0 C2 2.31 2 4.62 2 7 C2.66 6.67 3.32 6.34 4 6 C4.65772428 2.97065509 4.65772428 2.97065509 5 0 C5.66 0 6.32 0 7 0 C7 2.64 7 5.28 7 8 C5.02 8 3.04 8 1 8 C-0.35439668 5.29120665 -0.06501451 2.99066732 0 0 Z " fill="#4E4E4E" transform="translate(794,48)"/>
<path d="M0 0 C1.32 0.66 2.64 1.32 4 2 C3.67 3.98 3.34 5.96 3 8 C1.68 7.67 0.36 7.34 -1 7 C-1.04254356 5.00045254 -1.04080783 2.99958364 -1 1 C-0.67 0.67 -0.34 0.34 0 0 Z " fill="#949494" transform="translate(115,506)"/>
<path d="M0 0 C0.66 0 1.32 0 2 0 C2 1.98 2 3.96 2 6 C4.51083114 4.74458443 4.87125446 3.49936512 6 1 C6.042721 2.66611905 6.04063832 4.33382885 6 6 C5 7 5 7 1.9375 7.0625 C0.968125 7.041875 -0.00125 7.02125 -1 7 C-1.625 4.625 -1.625 4.625 -2 2 C-1.34 1.34 -0.68 0.68 0 0 Z " fill="#515151" transform="translate(14,212)"/>
<path d="M0 0 C1.67542976 0.28604898 3.34385343 0.61781233 5 1 C5.33 1.99 5.66 2.98 6 4 C4.02 4 2.04 4 0 4 C1.25541557 6.51083114 2.50063488 6.87125446 5 8 C3.33388095 8.042721 1.66617115 8.04063832 0 8 C-1 7 -1 7 -1.125 4 C-1 1 -1 1 0 0 Z " fill="#505050" transform="translate(804,48)"/>
<path d="M0 0 C1.67542976 0.28604898 3.34385343 0.61781233 5 1 C5.33 1.99 5.66 2.98 6 4 C4.02 4 2.04 4 0 4 C1.25541557 6.51083114 2.50063488 6.87125446 5 8 C3.33388095 8.042721 1.66617115 8.04063832 0 8 C-1 7 -1 7 -1.125 4 C-1 1 -1 1 0 0 Z " fill="#4F4F4F" transform="translate(778,48)"/>
<path d="M0 0 C4.875 0.875 4.875 0.875 6 2 C6.04080783 3.99958364 6.04254356 6.00045254 6 8 C4.02 8 2.04 8 0 8 C0.33 7.34 0.66 6.68 1 6 C1.66 6 2.32 6 3 6 C3.33 5.34 3.66 4.68 4 4 C2.68 4.33 1.36 4.66 0 5 C0 3.35 0 1.7 0 0 Z " fill="#474747" transform="translate(453,531)"/>
<path d="M0 0 C0.66 0 1.32 0 2 0 C2 0.99 2 1.98 2 3 C2.99 3.33 3.98 3.66 5 4 C4.01 4 3.02 4 2 4 C2 6.64 2 9.28 2 12 C2.66 12.33 3.32 12.66 4 13 C2.68 12.67 1.36 12.34 0 12 C-0.19573608 10.56359829 -0.38127816 9.12580496 -0.5625 7.6875 C-0.66691406 6.88699219 -0.77132813 6.08648437 -0.87890625 5.26171875 C-1 3 -1 3 0 0 Z " fill="#2F2F2F" transform="translate(488,11)"/>
<path d="M0 0 C0.66 0 1.32 0 2 0 C2 0.99 2 1.98 2 3 C2.99 3.33 3.98 3.66 5 4 C4.01 4 3.02 4 2 4 C2 6.64 2 9.28 2 12 C2.66 12.33 3.32 12.66 4 13 C2.68 12.67 1.36 12.34 0 12 C-0.19573608 10.56359829 -0.38127816 9.12580496 -0.5625 7.6875 C-0.66691406 6.88699219 -0.77132813 6.08648437 -0.87890625 5.26171875 C-1 3 -1 3 0 0 Z " fill="#2F2F2F" transform="translate(449,11)"/>
<path d="M0 0 C1.98 0 3.96 0 6 0 C6 0.66 6 1.32 6 2 C4.68 2 3.36 2 2 2 C2 3.32 2 4.64 2 6 C2.99 6.33 3.98 6.66 5 7 C3.68 7 2.36 7 1 7 C1 8.98 1 10.96 1 13 C0.67 13 0.34 13 0 13 C0 8.71 0 4.42 0 0 Z " fill="#212121" transform="translate(376,11)"/>
<path d="M0 0 C1.32 0.33 2.64 0.66 4 1 C2.515 2.485 2.515 2.485 1 4 C1.66 4.33 2.32 4.66 3 5 C2.34 5 1.68 5 1 5 C1 7.97 1 10.94 1 14 C0.34 14 -0.32 14 -1 14 C-1.33 10.7 -1.66 7.4 -2 4 C-1.34 4 -0.68 4 0 4 C0 2.68 0 1.36 0 0 Z " fill="#282828" transform="translate(536,10)"/>
<path d="M0 0 C3.63 0 7.26 0 11 0 C11 0.66 11 1.32 11 2 C10.01 2 9.02 2 8 2 C7.67 2.99 7.34 3.98 7 5 C6.67 4.34 6.34 3.68 6 3 C4.68 3 3.36 3 2 3 C1.34 3.66 0.68 4.32 0 5 C0 3.35 0 1.7 0 0 Z " fill="#424242" transform="translate(12,230)"/>
<path d="M0 0 C0.33 0 0.66 0 1 0 C1.33 1.65 1.66 3.3 2 5 C3.32 4.34 4.64 3.68 6 3 C4.515 5.475 4.515 5.475 3 8 C3.66 8 4.32 8 5 8 C4.67 8.66 4.34 9.32 4 10 C3.34 9.67 2.68 9.34 2 9 C2 9.66 2 10.32 2 11 C1.34 11 0.68 11 0 11 C0 7.37 0 3.74 0 0 Z " fill="#343434" transform="translate(470,528)"/>
<path d="M0 0 C1.65 0 3.3 0 5 0 C5 3.63 5 7.26 5 11 C4.34 11 3.68 11 3 11 C3 10.01 3 9.02 3 8 C2.01 7.67 1.02 7.34 0 7 C0.99 7 1.98 7 3 7 C3 5.02 3 3.04 3 1 C2.01 0.67 1.02 0.34 0 0 Z " fill="#3A3A3A" transform="translate(787,48)"/>
<path d="M0 0 C1.98 0 3.96 0 6 0 C6 0.66 6 1.32 6 2 C5.01 2.33 4.02 2.66 3 3 C2.67 5.31 2.34 7.62 2 10 C1.34 10 0.68 10 0 10 C0 6.7 0 3.4 0 0 Z " fill="#454545" transform="translate(455,14)"/>
<path d="M0 0 C2.475 0.495 2.475 0.495 5 1 C4.67 2.65 4.34 4.3 4 6 C2.68 6 1.36 6 0 6 C0 4.02 0 2.04 0 0 Z " fill="#ECECEC" transform="translate(590,16)"/>
<path d="M0 0 C2.475 0.495 2.475 0.495 5 1 C4.67 2.65 4.34 4.3 4 6 C2.68 6 1.36 6 0 6 C0 4.02 0 2.04 0 0 Z " fill="#E8E8E8" transform="translate(563,16)"/>
<path d="M0 0 C1.32 0 2.64 0 4 0 C4 1.98 4 3.96 4 6 C2.35 5.67 0.7 5.34 -1 5 C-0.67 3.35 -0.34 1.7 0 0 Z " fill="#EFEFEF" transform="translate(501,16)"/>
<path d="M0 0 C0.66 0 1.32 0 2 0 C3.125 5.75 3.125 5.75 2 8 C1.34 8 0.68 8 0 8 C0 7.34 0 6.68 0 6 C-0.99 6 -1.98 6 -3 6 C-1.125 1.125 -1.125 1.125 0 0 Z " fill="#727272" transform="translate(817,506)"/>
<path d="M0 0 C1.98 0.495 1.98 0.495 4 1 C3.01 1 2.02 1 1 1 C1 1.66 1 2.32 1 3 C1.99 3.33 2.98 3.66 4 4 C4 5.32 4 6.64 4 8 C2.35 8 0.7 8 -1 8 C-0.67 5.36 -0.34 2.72 0 0 Z " fill="#848484" transform="translate(57,440)"/>
<path d="M0 0 C0.66 0 1.32 0 2 0 C3.125 5.75 3.125 5.75 2 8 C1.34 8 0.68 8 0 8 C0 7.34 0 6.68 0 6 C-0.99 6 -1.98 6 -3 6 C-1.125 1.125 -1.125 1.125 0 0 Z " fill="#727272" transform="translate(59,340)"/>
<path d="M0 0 C0.66 0 1.32 0 2 0 C2.33 1.32 2.66 2.64 3 4 C3.66 4 4.32 4 5 4 C5.66 2.68 6.32 1.36 7 0 C6.49287967 3.71888239 5.88391785 6.73454239 4 10 C2.26337666 6.77484237 1.1094072 3.48670834 0 0 Z " fill="#424242" transform="translate(827,48)"/>
<path d="M0 0 C1.98 0 3.96 0 6 0 C6 0.66 6 1.32 6 2 C4.68 2 3.36 2 2 2 C2 4.64 2 7.28 2 10 C1.34 10 0.68 10 0 10 C0 6.7 0 3.4 0 0 Z " fill="#3A3A3A" transform="translate(572,14)"/>
<path d="M0 0 C4.95 1.98 4.95 1.98 10 4 C6.39338934 5.80330533 3.91606575 6.46599103 0 7 C1.32 6.34 2.64 5.68 4 5 C4 4.34 4 3.68 4 3 C2.68 2.67 1.36 2.34 0 2 C0 1.34 0 0.68 0 0 Z " fill="#404040" transform="translate(12,187)"/>
<path d="M0 0 C1.98 0.495 1.98 0.495 4 1 C3.67 2.65 3.34 4.3 3 6 C1.68 5.67 0.36 5.34 -1 5 C-0.67 3.35 -0.34 1.7 0 0 Z " fill="#F9F9F9" transform="translate(527,16)"/>
<path d="M0 0 C1.65 0 3.3 0 5 0 C5 0.66 5 1.32 5 2 C4.01 2 3.02 2 2 2 C2 4.64 2 7.28 2 10 C1.34 10 0.68 10 0 10 C0 6.7 0 3.4 0 0 Z " fill="#474747" transform="translate(293,14)"/>
<path d="M0 0 C1.65 0 3.3 0 5 0 C5.33 0.66 5.66 1.32 6 2 C5.67 2.66 5.34 3.32 5 4 C2.69 4 0.38 4 -2 4 C-1.34 2.68 -0.68 1.36 0 0 Z " fill="#808080" transform="translate(580,14)"/>
<path d="M0 0 C0 0.66 0 1.32 0 2 C-0.66 2 -1.32 2 -2 2 C-2 2.66 -2 3.32 -2 4 C-3.98 4 -5.96 4 -8 4 C-8.33 3.01 -8.66 2.02 -9 1 C-2.25 0 -2.25 0 0 0 Z " fill="#E0E0E0" transform="translate(309,18)"/>
<path d="M0 0 C1.32 0 2.64 0 4 0 C4 1.98 4 3.96 4 6 C2.68 6 1.36 6 0 6 C0 4.02 0 2.04 0 0 Z " fill="#F8F8F8" transform="translate(469,16)"/>
<path d="M0 0 C1.32 0 2.64 0 4 0 C4 1.98 4 3.96 4 6 C2.68 6 1.36 6 0 6 C0 4.02 0 2.04 0 0 Z " fill="#F9F9F9" transform="translate(311,16)"/>
<path d="M0 0 C2.97 0.33 5.94 0.66 9 1 C8.67 1.99 8.34 2.98 8 4 C6.02 4.33 4.04 4.66 2 5 C1.34 3.35 0.68 1.7 0 0 Z " fill="#8C8C8C" transform="translate(448,534)"/>
<path d="M0 0 C1.67542976 0.28604898 3.34385343 0.61781233 5 1 C4.34 2.98 3.68 4.96 3 7 C2.34 7 1.68 7 1 7 C1 5.35 1 3.7 1 2 C0.34 1.67 -0.32 1.34 -1 1 C-0.67 0.67 -0.34 0.34 0 0 Z " fill="#E4E4E4" transform="translate(15,271)"/>
<path d="M0 0 C0.66 0.33 1.32 0.66 2 1 C1.67 2.65 1.34 4.3 1 6 C-0.98 5.34 -2.96 4.68 -5 4 C-5 3.34 -5 2.68 -5 2 C-3.35 2 -1.7 2 0 2 C0 1.34 0 0.68 0 0 Z " fill="#E1E1E1" transform="translate(749,50)"/>
<path d="M0 0 C0.99 0.33 1.98 0.66 3 1 C2.67 3.97 2.34 6.94 2 10 C1.34 10 0.68 10 0 10 C0 6.7 0 3.4 0 0 Z " fill="#2F2F2F" transform="translate(614,14)"/>
<path d="M0 0 C0.99 0.33 1.98 0.66 3 1 C2.67 3.97 2.34 6.94 2 10 C1.34 10 0.68 10 0 10 C0 6.7 0 3.4 0 0 Z " fill="#2F2F2F" transform="translate(509,14)"/>
<path d="M0 0 C0.99 0.33 1.98 0.66 3 1 C2.67 3.97 2.34 6.94 2 10 C1.34 10 0.68 10 0 10 C0 6.7 0 3.4 0 0 Z " fill="#2F2F2F" transform="translate(397,14)"/>
<path d="M0 0 C1.65 0.33 3.3 0.66 5 1 C4.67 1.99 4.34 2.98 4 4 C2.35 3.67 0.7 3.34 -1 3 C-0.67 2.01 -0.34 1.02 0 0 Z " fill="#E1E1E1" transform="translate(14,266)"/>
<path d="M0 0 C1.32 0 2.64 0 4 0 C4 1.65 4 3.3 4 5 C1.525 4.01 1.525 4.01 -1 3 C-0.67 2.01 -0.34 1.02 0 0 Z " fill="#ACACAC" transform="translate(389,19)"/>
<path d="M0 0 C0.99 0.33 1.98 0.66 3 1 C2.67 2.65 2.34 4.3 2 6 C1.01 5.67 0.02 5.34 -1 5 C-0.67 3.35 -0.34 1.7 0 0 Z " fill="#E5E5E5" transform="translate(753,49)"/>
<path d="M0 0 C0.33 0.66 0.66 1.32 1 2 C1.99 2.33 2.98 2.66 4 3 C3.01 3 2.02 3 1 3 C1.32960216 8.01535052 1.32960216 8.01535052 4 12 C2.68 11.67 1.36 11.34 0 11 C-0.19491452 9.54263913 -0.38069358 8.08405407 -0.5625 6.625 C-0.66691406 5.81289063 -0.77132812 5.00078125 -0.87890625 4.1640625 C-1 2 -1 2 0 0 Z " fill="#050505" transform="translate(625,12)"/>
<path d="M0 0 C0.99 0 1.98 0 3 0 C3 1.65 3 3.3 3 5 C3.99 5.33 4.98 5.66 6 6 C4.35 5.67 2.7 5.34 1 5 C0.67 3.35 0.34 1.7 0 0 Z " fill="#888888" transform="translate(12,274)"/>
<path d="M0 0 C1.32 0 2.64 0 4 0 C4 0.99 4 1.98 4 3 C2.35 3 0.7 3 -1 3 C-1.33 3.99 -1.66 4.98 -2 6 C-1.125 1.125 -1.125 1.125 0 0 Z " fill="#878787" transform="translate(744,48)"/>
<path d="M0 0 C1.98 0 3.96 0 6 0 C6 0.99 6 1.98 6 3 C4.02 3 2.04 3 0 3 C0 2.01 0 1.02 0 0 Z " fill="#E3E3E3" transform="translate(580,19)"/>
<path d="M0 0 C1.98 0 3.96 0 6 0 C6 0.99 6 1.98 6 3 C4.02 3 2.04 3 0 3 C0 2.01 0 1.02 0 0 Z " fill="#E4E4E4" transform="translate(332,19)"/>
</svg>
